<svg xmlns="http://www.w3.org/2000/svg" viewBox="0 0 400 280" width="400" height="280">
  <defs>
    <linearGradient id="flame" x1="0%" y1="100%" x2="0%" y2="0%">
      <stop offset="0%" style="stop-color:#e63900"/>
      <stop offset="50%" style="stop-color:#ff6b1a"/>
      <stop offset="100%" style="stop-color:#ffd700"/>
    </linearGradient>
    <linearGradient id="gold" x1="0%" y1="0%" x2="100%" y2="100%">
      <stop offset="0%" style="stop-color:#e8d48b"/>
      <stop offset="100%" style="stop-color:#c9a227"/>
    </linearGradient>
  </defs>
  <!-- Flames -->
  <path d="M200 180 Q160 120 170 80 Q180 40 200 20 Q220 40 230 80 Q240 120 200 180" fill="url(#flame)" opacity="0.9"/>
  <path d="M160 190 Q130 140 140 100 Q150 60 165 50 Q175 80 170 120 Q165 160 160 190" fill="#ff6b1a" opacity="0.8"/>
  <path d="M240 190 Q270 140 260 100 Q250 60 235 50 Q225 80 230 120 Q235 160 240 190" fill="#e63900" opacity="0.8"/>
  <path d="M200 200 Q185 160 190 130 Q195 100 200 90 Q205 100 210 130 Q215 160 200 200" fill="#ffd700" opacity="0.7"/>
  <!-- Steak -->
  <ellipse cx="200" cy="55" rx="45" ry="28" fill="url(#gold)" stroke="#8b6914" stroke-width="2"/>
  <path d="M170 50 Q200 40 230 50" stroke="#8b6914" stroke-width="3" fill="none"/>
  <path d="M175 60 Q200 52 225 60" stroke="#8b6914" stroke-width="2" fill="none"/>
  <!-- Bars -->
  <rect x="120" y="85" width="30" height="6" fill="#1a1a1a"/>
  <rect x="155" y="85" width="30" height="6" fill="#c9a227"/>
  <rect x="215" y="85" width="30" height="6" fill="#c9a227"/>
  <rect x="250" y="85" width="30" height="6" fill="#1a1a1a"/>
  <!-- Text -->
  <text x="200" y="230" font-family="Georgia, serif" font-size="36" font-weight="bold" fill="#1a1a1a" stroke="#c9a227" stroke-width="1.5" text-anchor="middle">PRIME FIRE</text>
  <text x="200" y="255" font-family="Georgia, serif" font-size="14" fill="#c9a227" text-anchor="middle" letter-spacing="4">STEAKHOUSE</text>
</svg>